<svg xmlns="http://www.w3.org/2000/svg" viewBox="0 0 48 48"><defs><style>.cls-2{fill:#edebf2}.cls-3{fill:#fc6}.cls-4{fill:#ffde76}.cls-5{fill:#db5669}.cls-8{fill:#f26da6}.cls-9{fill:#de4a8c}</style></defs><g id="Wedding_Cake" data-name="Wedding Cake"><path style="fill:#dad7e5" d="M1 43h46v4H1z"/><path class="cls-2" d="M47 43v2H6a2 2 0 0 1-2-2z"/><path class="cls-3" d="M5 27h38v16H5z"/><path class="cls-4" d="M43 27v14H22A14 14 0 0 1 8 27z"/><path class="cls-3" d="M9 11h30v16H9z"/><path class="cls-4" d="M30.31 11a12 12 0 0 1-4.66 14A14 14 0 0 1 12 11zM39 11v14h-7.36A12 12 0 0 0 37 15v-4z"/><path class="cls-5" d="M23.89 6.36 20 10.24C15.8 6 15 5.64 15 4a3 3 0 0 1 5-2.23A3.11 3.11 0 0 1 22 1a3 3 0 0 1 2.13.88 3 3 0 0 0-.24 4.48z"/><path d="m22.88 6.35.51.51-2 2c-3.49-3.49-3.56-3.54-3.62-3.64A3 3 0 0 1 18 1a3.12 3.12 0 0 1 2 .77 3 3 0 0 1 3.69-.24 3 3 0 0 0-.81 4.82z" style="fill:#f26674"/><path d="M33 4.23c0 1.66-.83 2.07-5 6.24-4.2-4.2-5-4.6-5-6.24A3 3 0 0 1 28 2a3.12 3.12 0 0 1 2-.77 3 3 0 0 1 3 3z" style="fill:#c4455e"/><path class="cls-5" d="M33 4.23c0 1.56-.76 2-3.5 4.74C26 5.42 25 4.88 25 3.23a3 3 0 0 1 .76-2A3.06 3.06 0 0 1 28 2a3 3 0 0 1 5 2.23z"/><path class="cls-8" d="M39 11v4a12 12 0 0 1-12 12c-9.85 0-5.1.17-3-.38A12 12 0 0 0 32.31 11z"/><path class="cls-9" d="M27.63 25A11.9 11.9 0 0 1 24 26.62c-2.17.57-6.76.38 3 .38a12 12 0 0 0 11.18-7.67A12 12 0 0 1 27.63 25zM23 43h-6A12 12 0 0 1 5 31v-4h6.69A12 12 0 0 0 23 43z"/><path class="cls-8" d="M16.17 40.86A12 12 0 0 1 6 29v-2h5.69a12 12 0 0 0 4.48 13.86z"/><path class="cls-2" d="M19 32a1 1 0 0 0-2 0 1 1 0 0 0 2 0zM25 38a1 1 0 0 0-2 0 1 1 0 0 0 2 0zM17 16a1 1 0 0 0-2 0 1 1 0 0 0 2 0zM23 22a1 1 0 0 0-2 0 1 1 0 0 0 2 0zM31 32a1 1 0 0 0-2 0 1 1 0 0 0 2 0zM37 38a1 1 0 0 0-2 0 1 1 0 0 0 2 0z"/></g></svg>